<?xml version="1.0" encoding="utf-8"?>
<!-- Generator: Adobe Illustrator 24.0.1, SVG Export Plug-In . SVG Version: 6.00 Build 0)  -->
<svg version="1.1" id="Layer_1" xmlns="http://www.w3.org/2000/svg" xmlns:xlink="http://www.w3.org/1999/xlink" x="0px" y="0px"
	 viewBox="0 0 1280 769" style="enable-background:new 0 0 1280 769;" xml:space="preserve">
<style type="text/css">
	.st0{fill:#F7B114;}
	.st1{fill:#23A4CC;}
</style>
<g>
	<g>
		<g>
			<path class="st0" d="M358.64,325.4c0.05-0.32,0.23-0.67,0.52-1.04c0.29-0.37,0.65-0.72,1.08-1.04c0.43-0.32,0.88-0.57,1.36-0.76
				c0.48-0.19,0.93-0.28,1.36-0.28h20.44c0.9,0,1.68,0.28,2.32,0.84c0.64,0.56,1.12,1.05,1.44,1.48l2,4.55l41.92,108.12
				c0.42,1.07,0.34,1.93-0.24,2.59c-0.59,0.67-1.6,1-3.03,1h-22.92c-1.23,0-2.17-0.23-2.83-0.68c-0.67-0.45-1.19-1.21-1.56-2.28
				c-1.07-2.71-2.1-5.42-3.11-8.11c-1.01-2.69-2.02-5.39-3.03-8.1h-42.4c-1.01,2.71-2.04,5.42-3.08,8.1
				c-1.04,2.69-2.06,5.39-3.07,8.11c-0.69,1.97-2.05,2.95-4.07,2.95h-23.56c-1.01,0-1.85-0.27-2.52-0.8
				c-0.67-0.53-0.79-1.33-0.36-2.4L358.64,325.4z M373.17,359.58c-1.01,2.72-2.04,5.64-3.07,8.78c-1.04,3.14-2.06,6.31-3.07,9.5
				c-1.01,3.19-2.04,6.35-3.07,9.46s-2.06,6.03-3.07,8.74h24.51L373.17,359.58z"/>
			<path class="st0" d="M443.68,345.36c0-1.01,0.19-1.89,0.56-2.64c0.37-0.74,0.86-1.36,1.48-1.84c0.61-0.48,1.3-0.84,2.08-1.08
				c0.77-0.24,1.53-0.36,2.28-0.36h12.06c1.33,0,2.4,0.4,3.19,1.2c0.8,0.8,1.48,1.81,2.04,3.03c0.56,1.23,1.05,2.58,1.48,4.07
				c0.43,1.49,0.93,2.93,1.52,4.31c1.6-1.76,3.18-3.49,4.75-5.19c1.57-1.7,3.26-3.22,5.07-4.55c1.81-1.33,3.79-2.41,5.95-3.23
				c2.16-0.82,4.62-1.24,7.39-1.24c2.88,0,5.44,0.21,7.71,0.64c2.26,0.43,4.4,1.05,6.43,1.88c2.02,0.83,4.03,1.88,6.03,3.15
				c2,1.28,4.16,2.77,6.51,4.47c2.29,1.33,3.43,2.9,3.43,4.71c0,1.17-0.45,2.53-1.36,4.07l-7.27,12.38
				c-1.44,2.08-3.22,3.11-5.35,3.11c-1.07,0-2.26-0.29-3.59-0.88c-2.29-2.24-4.62-3.9-6.99-4.99c-2.37-1.09-5.07-1.64-8.1-1.64
				c-2.08,0-3.9,0.29-5.47,0.88c-1.57,0.59-3,1.41-4.27,2.48c-1.28,1.07-2.48,2.34-3.59,3.83c-1.12,1.49-2.24,3.14-3.35,4.95v57.81
				c0,2.02-0.49,3.55-1.48,4.59c-0.99,1.04-2.62,1.56-4.91,1.56h-17.97c-4.15,0-6.23-2.05-6.23-6.15V345.36z"/>
			<path class="st0" d="M598.11,409.64c0.74-0.53,1.45-0.86,2.12-1c0.67-0.13,1.18-0.2,1.56-0.2c0.9,0,1.73,0.19,2.48,0.56
				c0.74,0.37,1.52,1.17,2.32,2.4l8.94,13.5c0.27,0.43,0.52,0.91,0.76,1.44c0.24,0.53,0.36,0.96,0.36,1.28
				c0,1.22-0.39,2.22-1.16,2.99c-0.77,0.77-1.61,1.45-2.52,2.04c-4.37,3.03-9.14,5.47-14.33,7.31s-10.69,2.75-16.49,2.75
				c-4.79,0-9.41-0.61-13.85-1.84c-4.45-1.22-8.58-2.97-12.42-5.23c-3.83-2.26-7.35-4.98-10.54-8.14
				c-3.19-3.17-5.91-6.69-8.14-10.58c-2.24-3.89-3.98-8.08-5.23-12.58c-1.25-4.5-1.88-9.2-1.88-14.09c0-4.9,0.63-9.61,1.88-14.13
				c1.25-4.52,2.99-8.72,5.23-12.58c2.24-3.86,4.95-7.37,8.14-10.54c3.19-3.17,6.71-5.87,10.54-8.1s7.97-3.97,12.42-5.19
				c4.44-1.22,9.06-1.84,13.85-1.84c5.8,0,11.17,0.77,16.09,2.32c4.92,1.54,9.54,3.83,13.85,6.87l-0.24-0.24
				c1.17,0.69,2.1,1.5,2.79,2.44c0.69,0.93,1.04,2.09,1.04,3.47c0,0.96-0.32,1.94-0.96,2.95l-7.11,12.06
				c-1.49,2.61-3.3,3.91-5.43,3.91c-0.48,0-1.07-0.12-1.76-0.36c-0.69-0.24-1.46-0.65-2.32-1.24c-2.34-1.54-4.86-2.81-7.55-3.79
				c-2.69-0.98-5.55-1.48-8.58-1.48c-3.35,0-6.44,0.68-9.26,2.04c-2.82,1.36-5.23,3.21-7.23,5.55c-2,2.34-3.55,5.06-4.67,8.15
				c-1.12,3.09-1.68,6.33-1.68,9.74c0,3.51,0.56,6.8,1.68,9.86c1.12,3.06,2.67,5.71,4.67,7.95c2,2.24,4.4,4.01,7.23,5.31
				c2.82,1.31,5.91,1.96,9.26,1.96c3.04,0,5.88-0.53,8.54-1.6C593.18,412.65,595.71,411.29,598.11,409.64z"/>
			<path class="st0" d="M662.47,350.12c1.01-1.49,2.41-2.96,4.19-4.42c1.78-1.46,3.83-2.76,6.15-3.9c2.32-1.14,4.88-2.07,7.71-2.79
				c2.82-0.72,5.8-1.08,8.94-1.08c6.07,0,11.33,1.17,15.77,3.5c4.44,2.34,8.12,5.52,11.02,9.56c2.9,4.04,5.06,8.75,6.47,14.14
				c1.41,5.4,2.12,11.15,2.12,17.27v52.3c0,2.02-0.44,3.55-1.32,4.59c-0.88,1.04-2.28,1.56-4.19,1.56h-18.45
				c-2.29,0-3.86-0.39-4.71-1.16c-0.85-0.77-1.28-2.28-1.28-4.51v-52.78c0-2.29-0.44-4.42-1.32-6.39c-0.88-1.97-2.06-3.69-3.55-5.15
				c-1.49-1.46-3.23-2.61-5.23-3.43c-2-0.82-4.11-1.24-6.35-1.24c-1.92,0-3.79,0.39-5.63,1.16c-1.84,0.77-3.49,1.86-4.95,3.27
				c-1.46,1.41-2.69,3.1-3.67,5.07c-0.99,1.97-1.56,4.15-1.72,6.55v52.7c0,0.91-0.17,1.81-0.52,2.72c-0.35,0.91-0.87,1.6-1.56,2.08
				c-0.69,0.43-1.34,0.72-1.96,0.88c-0.61,0.16-1.32,0.24-2.12,0.24h-18.05c-2.29,0-3.94-0.56-4.95-1.68
				c-1.01-1.12-1.52-2.61-1.52-4.47v-65v-0.56v-23.75v-0.4v-29.62c0-1.81,0.51-3.27,1.52-4.39c1.01-1.12,2.66-1.68,4.95-1.68h18.05
				c1.22,0,2.58,0.43,4.07,1.28c0.69,0.48,1.21,1.17,1.56,2.08c0.34,0.91,0.52,1.76,0.52,2.56V350.12z"/>
			<path class="st1" d="M745.75,325.96c0-1.12,0.29-2.01,0.88-2.68c0.59-0.67,1.46-1,2.64-1h51.03c3.67,0,7.13,0.51,10.38,1.52
				c3.25,1.01,6.23,2.41,8.94,4.19c2.72,1.78,5.16,3.91,7.35,6.39c2.18,2.48,4.03,5.15,5.55,8.02c1.52,2.88,2.67,5.9,3.47,9.06
				c0.8,3.17,1.2,6.38,1.2,9.62c0,4.79-0.87,9.48-2.59,14.05c-1.73,4.58-4.19,8.65-7.39,12.22c-3.19,3.57-7.03,6.46-11.5,8.66
				s-9.42,3.34-14.85,3.39h-24.2v38.01c0,2.29-1.22,3.43-3.67,3.43h-23.72c-1.07,0-1.92-0.28-2.56-0.84
				c-0.64-0.56-0.96-1.42-0.96-2.6V325.96z M805.88,360.94c0-1.6-0.28-3.19-0.84-4.79c-0.56-1.6-1.37-3.02-2.44-4.27
				c-1.07-1.25-2.36-2.28-3.87-3.07s-3.23-1.2-5.15-1.2h-16.93v26.67h16.93c1.92,0,3.65-0.39,5.19-1.16
				c1.54-0.77,2.83-1.77,3.87-2.99c1.04-1.22,1.84-2.64,2.4-4.23C805.6,364.29,805.88,362.64,805.88,360.94z"/>
			<path class="st1" d="M952.73,434.96c0,0.91-0.16,1.77-0.48,2.6c-0.32,0.83-0.85,1.48-1.6,1.96c-0.59,0.59-1.28,0.96-2.08,1.12
				c-0.8,0.16-1.49,0.24-2.08,0.24h-15.73c-1.12,0-2.02-0.15-2.71-0.44c-0.69-0.29-1.25-0.71-1.68-1.24
				c-0.43-0.53-0.79-1.18-1.08-1.96c-0.29-0.77-0.6-1.61-0.92-2.52l-1.04-3.59c-1.44,1.44-3.07,2.85-4.91,4.23
				c-1.84,1.38-3.86,2.62-6.07,3.71c-2.21,1.09-4.58,1.97-7.11,2.64c-2.53,0.67-5.15,1-7.87,1c-4.84,0-9.49-0.61-13.93-1.84
				c-4.45-1.22-8.6-2.97-12.46-5.23c-3.86-2.26-7.36-4.98-10.5-8.14c-3.14-3.17-5.84-6.69-8.11-10.58
				c-2.26-3.89-4.01-8.08-5.23-12.58c-1.23-4.5-1.84-9.2-1.84-14.09c0-7.4,1.36-14.28,4.07-20.64c2.71-6.36,6.41-11.9,11.1-16.61
				c4.68-4.71,10.19-8.41,16.53-11.1c6.33-2.69,13.12-4.03,20.36-4.03c3.3,0,6.37,0.37,9.22,1.12c2.85,0.75,5.46,1.76,7.83,3.03
				c2.37,1.28,4.51,2.81,6.43,4.59c1.92,1.78,3.59,3.71,5.03,5.79l2.32-7.27c0.53-1.33,0.97-2.41,1.32-3.23
				c0.35-0.82,0.72-1.44,1.12-1.84s0.89-0.67,1.48-0.8c0.58-0.13,1.41-0.2,2.48-0.2h11.9c0.58,0,1.28,0.08,2.08,0.24
				s1.49,0.53,2.08,1.12c0.75,0.59,1.28,1.25,1.6,2c0.32,0.75,0.48,1.6,0.48,2.56V434.96z M874.07,390.24c0,3.51,0.55,6.8,1.64,9.86
				c1.09,3.06,2.65,5.71,4.67,7.95c2.02,2.24,4.46,4.01,7.31,5.31c2.85,1.31,6,1.96,9.46,1.96c3.57,0,6.88-0.65,9.94-1.96
				c3.06-1.3,5.72-3.07,7.99-5.31c2.26-2.24,4.03-4.88,5.31-7.95c1.28-3.06,1.92-6.35,1.92-9.86c0-3.41-0.64-6.65-1.92-9.74
				c-1.28-3.09-3.05-5.8-5.31-8.15c-2.26-2.34-4.92-4.19-7.99-5.55c-3.06-1.36-6.38-2.04-9.94-2.04c-3.46,0-6.62,0.68-9.46,2.04
				c-2.85,1.36-5.28,3.21-7.31,5.55c-2.02,2.34-3.58,5.06-4.67,8.15C874.62,383.59,874.07,386.83,874.07,390.24z"/>
			<path class="st1" d="M971.81,305.28c0-2.24,0.48-3.82,1.44-4.75c0.96-0.93,2.45-1.4,4.47-1.4h18.53c1.86,0,3.37,0.47,4.51,1.4
				c1.14,0.93,1.72,2.52,1.72,4.75v15.57c0,0.64-0.15,1.33-0.44,2.08c-0.29,0.75-0.71,1.46-1.24,2.16
				c-0.53,0.69-1.19,1.27-1.96,1.72c-0.77,0.45-1.64,0.68-2.6,0.68h-18.53c-3.94,0-5.91-2.21-5.91-6.63V305.28z M971.81,345.68
				c0-1.7,0.48-3.17,1.44-4.39c0.96-1.22,2.45-1.84,4.47-1.84h18.29c0.64,0,1.33,0.15,2.08,0.44c0.75,0.29,1.44,0.72,2.08,1.28
				c0.64,0.56,1.18,1.21,1.64,1.96c0.45,0.75,0.68,1.6,0.68,2.56v89.03c0,2.02-0.56,3.55-1.68,4.59s-2.71,1.56-4.79,1.56h-18.29
				c-3.94,0-5.91-2.05-5.91-6.15V345.68z"/>
			<path class="st1" d="M1093.9,430.88c-1.44,1.44-3.07,2.86-4.91,4.27c-1.84,1.41-3.83,2.67-5.99,3.79s-4.47,2.02-6.95,2.71
				c-2.48,0.69-5.1,1.04-7.87,1.04c-7.24,0-13.91-1.36-20-4.07c-6.1-2.71-11.34-6.43-15.73-11.14c-4.39-4.71-7.83-10.26-10.3-16.65
				c-2.48-6.39-3.71-13.25-3.71-20.6c0-7.4,1.24-14.28,3.71-20.64c2.47-6.36,5.91-11.9,10.3-16.61c4.39-4.71,9.63-8.41,15.73-11.1
				c6.09-2.69,12.76-4.03,20-4.03c2.93,0,5.6,0.25,8.03,0.76c2.42,0.51,4.63,1.24,6.63,2.2c2,0.96,3.83,2.1,5.51,3.43
				c1.68,1.33,3.26,2.79,4.75,4.39v-33.3c0-1.7,0.52-3.14,1.56-4.31c1.04-1.17,2.59-1.76,4.67-1.76h17.97c0.69,0,1.42,0.15,2.2,0.44
				c0.77,0.29,1.48,0.71,2.12,1.24c0.64,0.53,1.16,1.17,1.56,1.92c0.4,0.75,0.6,1.57,0.6,2.48v119.38c0,4.1-2.16,6.15-6.47,6.15
				h-15.65c-1.07,0-1.89-0.13-2.48-0.4c-0.59-0.27-1.08-0.65-1.48-1.16s-0.76-1.14-1.08-1.92c-0.32-0.77-0.72-1.66-1.2-2.67
				L1093.9,430.88z M1047.19,390.24c0,3.51,0.54,6.8,1.64,9.86c1.09,3.06,2.65,5.71,4.67,7.95c2.02,2.24,4.46,4.01,7.31,5.31
				c2.85,1.31,6,1.96,9.46,1.96c3.41,0,6.61-0.61,9.62-1.84c3.01-1.22,5.63-2.92,7.87-5.07c2.24-2.16,4.03-4.7,5.39-7.63
				s2.12-6.07,2.28-9.42v-1.12c0-3.41-0.64-6.65-1.92-9.74c-1.28-3.09-3.05-5.8-5.31-8.15c-2.26-2.34-4.92-4.19-7.99-5.55
				c-3.06-1.36-6.38-2.04-9.94-2.04c-3.46,0-6.62,0.68-9.46,2.04c-2.85,1.36-5.28,3.21-7.31,5.55c-2.02,2.34-3.58,5.06-4.67,8.15
				C1047.74,383.59,1047.19,386.83,1047.19,390.24z"/>
		</g>
	</g>
	<g>
		<path class="st0" d="M276.22,450.1h-29.04V304.26h-91.73V450.1h-29.04V275.22h149.81V450.1z M256.42,440.86h10.56V284.46H135.65
			v156.41h10.56V295.02h110.21V440.86z"/>
	</g>
	<g>
		<path class="st1" d="M187.99,385.02c0.49,0.41,1.13,0.95,1.89,1.63c0.77,0.68,1.65,1.36,2.63,2.03c1.48,0.99,2.95,1.76,4.4,2.31
			c1.45,0.55,2.98,0.83,4.57,0.83c1.48,0,2.72-0.17,3.72-0.5c1-0.33,1.79-0.78,2.37-1.33c0.58-0.55,0.99-1.19,1.24-1.92
			c0.25-0.72,0.37-1.49,0.37-2.31c0-0.9-0.34-1.71-1.02-2.42c-0.68-0.71-1.52-1.34-2.5-1.89c-0.99-0.55-2.02-1.02-3.09-1.42
			s-2-0.72-2.79-0.98c-3.48-1.22-6.53-2.53-9.14-3.94c-2.61-1.41-4.79-2.98-6.53-4.7c-1.74-1.73-3.05-3.63-3.92-5.7
			s-1.31-4.39-1.31-6.95c0-2.24,0.38-4.3,1.13-6.18c0.75-1.89,1.83-3.57,3.22-5.05c1.39-1.48,3.1-2.74,5.12-3.77
			c2.02-1.03,4.29-1.79,6.82-2.29v-6.05c0-0.52,0.16-0.97,0.48-1.35c0.32-0.38,0.8-0.57,1.44-0.57h8.19c0.44,0,0.89,0.17,1.37,0.52
			c0.48,0.35,0.72,0.81,0.72,1.39v5.83c1.63,0.29,3.21,0.7,4.77,1.24c1.55,0.54,3.1,1.23,4.64,2.07c0.99,0.58,1.92,1.18,2.81,1.81
			c0.88,0.63,1.66,1.23,2.33,1.81c0.67,0.58,1.2,1.13,1.59,1.65c0.39,0.52,0.59,0.97,0.59,1.35c0,0.38-0.09,0.73-0.28,1.04
			c-0.19,0.32-0.47,0.68-0.85,1.09l-6.66,7.1c-0.49,0.49-0.99,0.74-1.48,0.74c-0.41,0-0.78-0.12-1.11-0.35
			c-0.33-0.23-0.7-0.52-1.11-0.87l-0.39-0.35c-0.58-0.49-1.23-1-1.94-1.52c-0.71-0.52-1.47-0.99-2.29-1.42s-1.67-0.77-2.57-1.05
			c-0.9-0.28-1.81-0.41-2.74-0.41c-0.96,0-1.86,0.08-2.7,0.24c-0.84,0.16-1.58,0.41-2.22,0.76c-0.64,0.35-1.15,0.81-1.52,1.37
			c-0.38,0.57-0.57,1.26-0.57,2.07c0,0.81,0.2,1.52,0.61,2.11c0.41,0.6,1.02,1.15,1.83,1.65c0.81,0.51,1.82,0.99,3.03,1.44
			c1.2,0.45,2.61,0.94,4.2,1.46c3.08,1.02,5.92,2.08,8.51,3.2c2.6,1.12,4.84,2.44,6.73,3.96c1.89,1.52,3.36,3.35,4.42,5.47
			s1.59,4.69,1.59,7.71c0,2.73-0.48,5.23-1.44,7.51c-0.96,2.28-2.29,4.3-4.01,6.08s-3.74,3.24-6.07,4.42
			c-2.34,1.18-4.9,2.01-7.69,2.5v6.23c0,1.28-0.7,1.92-2.09,1.92h-8.19c-1.28,0-1.92-0.64-1.92-1.92v-6.36
			c-2.29-0.49-4.51-1.25-6.66-2.26c-2.15-1.02-4.18-2.22-6.1-3.61c-1.16-0.84-2.14-1.67-2.94-2.48c-0.8-0.81-1.43-1.46-1.89-1.96
			l-0.13-0.13c-0.03-0.06-0.06-0.09-0.09-0.11c-0.03-0.01-0.06-0.04-0.09-0.07c-0.03-0.06-0.06-0.09-0.09-0.11
			c-0.03-0.01-0.06-0.04-0.09-0.07c-0.67-0.72-1-1.31-1-1.74c0-0.49,0.33-1.05,1-1.66l7.53-7.18c0.61-0.44,1.1-0.65,1.48-0.65
			c0.26,0,0.54,0.09,0.83,0.26C187.23,384.41,187.58,384.67,187.99,385.02z"/>
	</g>
</g>
</svg>
