<?xml version="1.0" encoding="utf-8"?>
<!-- Generator: Adobe Illustrator 24.0.1, SVG Export Plug-In . SVG Version: 6.00 Build 0)  -->
<svg version="1.1" id="Layer_1" xmlns="http://www.w3.org/2000/svg" xmlns:xlink="http://www.w3.org/1999/xlink" x="0px" y="0px"
	 viewBox="0 0 682 425" style="enable-background:new 0 0 682 425;" xml:space="preserve">
<style type="text/css">
	.st0{fill:#1F5962;}
	.st1{fill:#EF1C01;}
	.st2{fill:#FFFFFF;}
</style>
<g>
	<g>
		<g>
			<path class="st0" d="M242.29,230.96c-6.02-5.84-9.02-13.25-9.02-22.23s3.01-16.39,9.02-22.23c6.01-5.84,13.37-8.76,22.06-8.76
				c6.74,0,12.72,1.79,17.96,5.35c5.24,3.57,8.89,8.52,10.97,14.85h-17.61c-2.3-4.43-5.99-6.65-11.05-6.65
				c-5.07,0-9.05,1.58-11.96,4.75c-2.91,3.17-4.36,7.4-4.36,12.69c0,5.3,1.45,9.53,4.36,12.69c2.91,3.17,6.89,4.75,11.96,4.75
				c5.06,0,8.75-2.22,11.05-6.65h17.61c-2.07,6.33-5.73,11.28-10.97,14.85c-5.24,3.57-11.23,5.35-17.96,5.35
				C255.66,239.73,248.31,236.81,242.29,230.96z"/>
			<path class="st0" d="M312.71,185.59c-1.67,1.67-3.71,2.5-6.13,2.5c-2.42,0-4.46-0.83-6.13-2.5c-1.67-1.67-2.5-3.73-2.5-6.17
				c0-2.45,0.83-4.5,2.5-6.17c1.67-1.67,3.71-2.5,6.13-2.5c2.42,0,4.46,0.84,6.13,2.5c1.67,1.67,2.5,3.73,2.5,6.17
				C315.21,181.86,314.38,183.92,312.71,185.59z M299.24,239.21v-48.18H314v48.18H299.24z"/>
			<path class="st0" d="M338.18,191.03v8.98c3.45-6.33,8.06-9.5,13.82-9.5v15.02h-3.63c-3.4,0-5.95,0.81-7.64,2.42
				c-1.7,1.61-2.55,4.43-2.55,8.46v22.8h-14.77v-48.18H338.18z"/>
			<path class="st0" d="M359.64,233.08c-4.46-4.49-6.69-10.48-6.69-17.96c0-7.48,2.23-13.46,6.69-17.92
				c4.46-4.46,10.23-6.69,17.31-6.69c5.87,0,10.85,1.45,14.94,4.36c4.09,2.91,6.79,7.07,8.12,12.48h-15.97
				c-1.38-2.88-3.64-4.32-6.78-4.32c-3.14,0-5.47,1.11-6.99,3.33c-1.53,2.22-2.29,5.14-2.29,8.76s0.76,6.55,2.29,8.76
				c1.52,2.22,3.76,3.32,6.69,3.32c1.84,0,3.28-0.32,4.32-0.95c1.04-0.63,1.96-1.75,2.76-3.37h15.97c-1.33,5.18-4.06,9.3-8.2,12.35
				c-4.14,3.05-9.1,4.58-14.85,4.58C369.87,239.82,364.1,237.57,359.64,233.08z"/>
			<path class="st0" d="M404.75,239.21v-63.9h14.77v63.9H404.75z"/>
			<path class="st0" d="M449.4,239.82c-7.02,0-12.78-2.26-17.27-6.78c-4.49-4.52-6.74-10.52-6.74-18c0-7.48,2.23-13.44,6.69-17.87
				c4.46-4.43,10.23-6.65,17.31-6.65c7.08,0,12.95,2.19,17.61,6.56c4.66,4.38,6.99,10.45,6.99,18.22c0,1.67-0.12,3.22-0.34,4.66
				H440.5c0.29,2.13,1.24,3.87,2.85,5.22c1.61,1.35,3.35,2.03,5.22,2.03c1.87,0,3.27-0.19,4.19-0.56c0.92-0.37,1.6-0.75,2.03-1.12
				c0.43-0.37,0.99-0.99,1.68-1.86h15.97c-1.38,4.83-4.14,8.74-8.29,11.7C460.02,238.33,455.09,239.82,449.4,239.82z M455.7,205.23
				c-1.73-1.41-3.77-2.12-6.13-2.12c-2.36,0-4.35,0.71-5.96,2.12c-1.61,1.41-2.62,3.24-3.02,5.48h18.05
				C458.4,208.47,457.43,206.64,455.7,205.23z"/>
			<path class="st0" d="M484.28,195.35c0,2.36,0.62,4.29,1.86,5.79c1.24,1.5,2.83,2.61,4.79,3.32c1.96,0.72,4.11,1.34,6.48,1.86
				c2.36,0.52,4.72,1.09,7.08,1.73c2.36,0.63,4.52,1.45,6.48,2.46c1.96,1.01,3.55,2.55,4.79,4.62c1.24,2.07,1.86,4.63,1.86,7.68
				c0,4.55-1.7,8.52-5.09,11.92c-3.4,3.4-8.04,5.09-13.94,5.09c-5.9,0-10.69-1.32-14.38-3.97c-3.68-2.65-5.53-6.22-5.53-10.71h6.39
				c0.23,2.76,1.41,5.05,3.54,6.86c2.13,1.81,5.31,2.72,9.54,2.72c4.23,0,7.6-1.09,10.1-3.28c2.5-2.19,3.76-4.91,3.76-8.16
				c0-3.25-1.15-5.7-3.45-7.34c-2.3-1.64-5.08-2.78-8.33-3.41c-3.25-0.63-6.51-1.37-9.76-2.2c-3.25-0.83-6.03-2.46-8.33-4.88
				c-2.3-2.42-3.45-5.93-3.45-10.53c0-4.6,1.71-8.4,5.14-11.4c3.42-2.99,7.94-4.49,13.56-4.49s10.03,1.29,13.25,3.89
				c3.22,2.59,5.18,6.04,5.87,10.36h-6.82c-0.23-2.42-1.44-4.53-3.63-6.35c-2.19-1.81-5.18-2.72-8.98-2.72
				c-3.8,0-6.88,0.95-9.24,2.85C485.46,188.96,484.28,191.72,484.28,195.35z"/>
			<path class="st0" d="M559.31,192.07h6.04v47.15h-6.04v-7.68c-3.17,5.7-8.38,8.55-15.63,8.55c-5.24,0-9.61-1.71-13.13-5.14
				c-3.51-3.42-5.27-8.36-5.27-14.81v-28.06h5.96v26.94c0,5.18,1.25,9.12,3.76,11.83c2.5,2.71,5.93,4.06,10.28,4.06
				c4.35,0,7.77-1.35,10.28-4.06c2.5-2.71,3.76-6.65,3.76-11.83V192.07z"/>
			<path class="st0" d="M599.21,191.2c6.62,0,12.07,2.2,16.36,6.61s6.43,10.22,6.43,17.44c0,7.22-2.16,13.17-6.48,17.83
				c-4.32,4.66-9.76,6.99-16.32,6.99c-4.26,0-8-1.05-11.22-3.15c-3.22-2.1-5.61-4.79-7.17-8.07v10.36h-6.04v-63.9h6.04v27.03
				c1.55-3.28,3.94-5.96,7.17-8.03C591.2,192.24,594.94,191.2,599.21,191.2z M598.25,234.89c4.84,0,8.97-1.83,12.39-5.48
				c3.42-3.65,5.14-8.38,5.14-14.16s-1.7-10.38-5.09-13.77c-3.4-3.4-7.53-5.09-12.39-5.09c-4.87,0-9,1.77-12.39,5.31
				s-5.09,8.19-5.09,13.95c0,5.76,1.7,10.4,5.09,13.94S593.42,234.89,598.25,234.89z"/>
		</g>
	</g>
	<path class="st1" d="M190.79,160.36l-4.52,4.52c-0.93,0.93-0.97,2.43-0.08,3.39c9.72,10.59,15.67,24.71,15.67,40.18
		c0,15.47-5.94,29.59-15.67,40.18c-0.89,0.97-0.85,2.46,0.08,3.39l4.52,4.52c0.99,0.99,2.61,0.96,3.57-0.07
		c11.68-12.62,18.83-29.51,18.83-48.02c0-18.51-7.14-35.4-18.83-48.02C193.4,159.41,191.78,159.37,190.79,160.36z M94.27,160.04
		c-0.99-0.99-2.6-0.96-3.56,0.06c-11.86,12.66-19.14,29.67-19.14,48.36c0,18.69,7.27,35.7,19.14,48.36
		c0.96,1.02,2.57,1.05,3.56,0.06l4.52-4.52c0.93-0.93,0.97-2.44,0.07-3.41c-9.9-10.62-15.96-24.86-15.96-40.49
		c0-15.64,6.06-29.87,15.96-40.49c0.9-0.97,0.86-2.47-0.07-3.41L94.27,160.04z"/>
	<path class="st1" d="M176.98,174.17l-4.53,4.53c-0.92,0.92-0.96,2.39-0.1,3.37c6.21,7.04,9.98,16.28,9.98,26.39
		c0,10.11-3.77,19.35-9.98,26.39c-0.86,0.98-0.82,2.45,0.1,3.37l4.53,4.53c1,1,2.64,0.96,3.58-0.09
		c8.15-9.09,13.11-21.08,13.11-34.2c0-13.13-4.96-25.12-13.11-34.2C179.62,173.21,177.98,173.17,176.98,174.17z M108.06,173.83
		c-0.99-0.99-2.62-0.96-3.57,0.07c-8.33,9.12-13.42,21.25-13.42,34.55s5.08,25.43,13.42,34.55c0.95,1.04,2.57,1.07,3.57,0.07
		l4.52-4.52c0.93-0.93,0.96-2.41,0.08-3.39c-6.37-7.09-10.26-16.46-10.26-26.71s3.89-19.63,10.26-26.71
		c0.88-0.98,0.84-2.46-0.08-3.39L108.06,173.83z"/>
	<path class="st0" d="M175.42,208.46c0,9.03-3.63,17.24-9.52,23.2c-5.98,6.07-14.31,9.84-23.52,9.84c-9.04,0-17.24-3.63-23.2-9.52
		c-6.07-5.98-9.84-14.31-9.84-23.51s3.77-17.53,9.84-23.52c5.97-5.89,14.16-9.52,23.2-9.52c9.2,0,17.53,3.77,23.52,9.84
		C171.79,191.22,175.42,199.43,175.42,208.46z"/>
	<g>
		<path class="st2" d="M160,226.05c-0.47,0-0.95-0.14-1.36-0.44c-4.67-3.32-10.18-5.07-15.93-5.07c-5.68,0-11.14,1.72-15.78,4.96
			c-1.07,0.75-2.54,0.49-3.29-0.58c-0.75-1.07-0.49-2.54,0.58-3.29c5.44-3.8,11.83-5.81,18.49-5.81c6.74,0,13.19,2.05,18.66,5.94
			c1.06,0.75,1.31,2.23,0.56,3.29C161.46,225.7,160.73,226.05,160,226.05z"/>
		<path class="st2" d="M132.48,215.59l-0.1,0.11c-0.02-0.01-0.04-0.03-0.06-0.06C132.37,215.63,132.42,215.61,132.48,215.59z"/>
		<path class="st2" d="M147.37,219.04L147.37,219.04C147.37,219.05,147.37,219.04,147.37,219.04S147.37,219.04,147.37,219.04z"/>
		<path class="st2" d="M153.03,215.68l-0.08-0.08c0.05,0.01,0.09,0.03,0.13,0.05C153.06,215.66,153.05,215.67,153.03,215.68z"/>
		<path class="st2" d="M147.36,219.04C147.37,219.04,147.37,219.05,147.36,219.04L147.36,219.04
			C147.37,219.04,147.37,219.04,147.36,219.04z M142.69,187.69c-9.37,0-16.99,7.63-16.99,16.99c0,4.52,1.77,8.64,4.68,11.69
			c0.64-0.27,1.28-0.51,1.94-0.73c-0.21-0.2-0.42-0.41-0.61-0.61c-0.23-0.23-0.43-0.46-0.63-0.71c-0.2-0.24-0.4-0.49-0.59-0.75
			c-0.18-0.25-0.36-0.52-0.53-0.78c-0.17-0.26-0.33-0.54-0.48-0.81c-0.16-0.27-0.3-0.56-0.43-0.85c-0.14-0.28-0.26-0.57-0.38-0.86
			c-0.12-0.29-0.23-0.59-0.33-0.9c-0.09-0.29-0.18-0.59-0.25-0.91c-0.08-0.3-0.16-0.61-0.21-0.93c-0.07-0.31-0.12-0.62-0.15-0.94
			c-0.05-0.31-0.08-0.62-0.09-0.94c-0.03-0.31-0.04-0.63-0.04-0.95c0-0.01,0-0.01,0-0.02c0-0.31,0.01-0.61,0.03-0.92
			c0.02-0.32,0.05-0.63,0.09-0.94c0.03-0.32,0.08-0.63,0.14-0.93c0.06-0.31,0.12-0.62,0.21-0.93c0.08-0.31,0.16-0.61,0.25-0.91
			c0.09-0.3,0.21-0.6,0.32-0.9c0.11-0.3,0.25-0.59,0.38-0.88c0.13-0.28,0.27-0.57,0.43-0.84c0.15-0.28,0.31-0.56,0.48-0.82
			c0.17-0.26,0.34-0.53,0.53-0.78c0.19-0.25,0.38-0.51,0.59-0.76c0.2-0.25,0.41-0.48,0.62-0.71c0.22-0.24,0.44-0.46,0.67-0.67
			c0.23-0.23,0.46-0.43,0.71-0.63c0.24-0.2,0.49-0.4,0.75-0.59c0.25-0.18,0.52-0.36,0.78-0.53c0.26-0.17,0.54-0.33,0.81-0.48
			c0.27-0.16,0.56-0.3,0.84-0.44c0.28-0.13,0.57-0.25,0.87-0.37c0.28-0.12,0.59-0.24,0.89-0.33c0.29-0.09,0.59-0.19,0.91-0.26
			c0.3-0.08,0.61-0.15,0.93-0.21c0.3-0.07,0.61-0.12,0.93-0.15c0.31-0.05,0.62-0.08,0.94-0.09c0.31-0.03,0.62-0.04,0.94-0.04h0.05
			c0.3,0,0.6,0.01,0.91,0.03c0.32,0.02,0.63,0.05,0.93,0.08c0.32,0.04,0.63,0.08,0.93,0.15c0.31,0.05,0.62,0.12,0.93,0.2
			c0.31,0.08,0.61,0.16,0.92,0.26c0.3,0.09,0.6,0.2,0.9,0.32c0.29,0.11,0.59,0.24,0.87,0.37c0.29,0.14,0.58,0.28,0.85,0.43
			c0.28,0.15,0.56,0.31,0.82,0.48c0.26,0.17,0.53,0.35,0.78,0.53c0.25,0.19,0.51,0.38,0.75,0.58c0.25,0.21,0.48,0.42,0.72,0.63
			c0.24,0.22,0.46,0.44,0.67,0.67c0.23,0.23,0.43,0.46,0.63,0.71c0.21,0.24,0.4,0.49,0.59,0.75c0.19,0.25,0.37,0.52,0.53,0.78
			c0.18,0.26,0.34,0.54,0.48,0.81c0.16,0.27,0.3,0.55,0.44,0.83c0.13,0.28,0.25,0.58,0.38,0.87c0.11,0.29,0.23,0.59,0.32,0.9
			c0.1,0.29,0.2,0.59,0.27,0.91c0.08,0.3,0.15,0.61,0.21,0.93c0.07,0.3,0.11,0.61,0.15,0.93c0.05,0.31,0.08,0.63,0.09,0.95
			c0.03,0.32,0.04,0.64,0.04,0.97v0.03c0,0.32-0.01,0.63-0.03,0.94c-0.02,0.32-0.05,0.63-0.09,0.94c-0.04,0.32-0.08,0.63-0.15,0.93
			c-0.05,0.32-0.12,0.63-0.21,0.93c-0.08,0.31-0.16,0.61-0.26,0.91c-0.09,0.3-0.2,0.6-0.32,0.9c-0.11,0.29-0.24,0.59-0.38,0.87
			c-0.13,0.28-0.27,0.57-0.43,0.84c-0.14,0.28-0.31,0.56-0.48,0.82c-0.17,0.26-0.34,0.53-0.53,0.78c-0.19,0.25-0.38,0.51-0.59,0.75
			c-0.2,0.25-0.41,0.48-0.63,0.72c-0.2,0.21-0.41,0.42-0.61,0.62c0.33,0.1,0.67,0.23,0.99,0.35c0.32,0.11,0.63,0.25,0.94,0.38
			c2.9-3.05,4.67-7.16,4.67-11.69C159.68,195.32,152.06,187.69,142.69,187.69z"/>
		<path class="st2" d="M141.63,188.67l0.07,0.94l0.06,0.93c0.29-0.02,0.59-0.03,0.89-0.03v-1.89
			C142.3,188.64,141.96,188.65,141.63,188.67z M143.64,188.67l-0.05,0.94l-0.06,0.94c0.29,0.01,0.59,0.04,0.88,0.08l0.11-0.93
			l0.12-0.93C144.32,188.71,143.98,188.68,143.64,188.67z M140.76,189.71l-0.12-0.94c-0.34,0.04-0.67,0.09-1,0.16l0.19,0.93
			l0.18,0.92c0.28-0.06,0.58-0.1,0.87-0.14L140.76,189.71z M145.65,188.91l-0.18,0.93l-0.17,0.92c0.29,0.06,0.59,0.12,0.87,0.2
			l0.23-0.92l0.24-0.92C146.31,189.04,145.98,188.97,145.65,188.91z M138.89,190.07l-0.24-0.93c-0.32,0.08-0.64,0.18-0.96,0.28
			l0.29,0.91l0.29,0.89c0.28-0.08,0.57-0.17,0.85-0.25L138.89,190.07z M147.6,189.4l-0.29,0.91l-0.28,0.89
			c0.28,0.09,0.56,0.2,0.83,0.3l0.35-0.87l0.35-0.89C148.24,189.62,147.92,189.51,147.6,189.4z M137.09,190.67l-0.36-0.89
			c-0.31,0.12-0.61,0.25-0.92,0.4l0.41,0.86l0.4,0.85c0.27-0.12,0.55-0.25,0.82-0.36L137.09,190.67z M149.48,190.14l-0.41,0.86
			l-0.4,0.85c0.27,0.13,0.54,0.26,0.79,0.41l0.45-0.82l0.45-0.83C150.08,190.43,149.78,190.28,149.48,190.14z M135.38,191.48
			l-0.46-0.84c-0.29,0.16-0.59,0.34-0.87,0.52l0.52,0.8l0.5,0.78c0.25-0.16,0.51-0.31,0.76-0.45L135.38,191.48z M151.24,191.11
			l-0.5,0.8l-0.5,0.79c0.25,0.15,0.49,0.32,0.73,0.49l0.56-0.76l0.56-0.76C151.81,191.48,151.54,191.29,151.24,191.11z
			 M133.79,192.49l-0.57-0.76c-0.26,0.2-0.53,0.41-0.79,0.62l0.61,0.73l0.59,0.72c0.23-0.19,0.46-0.37,0.71-0.55L133.79,192.49z
			 M152.88,192.29l-0.6,0.73l-0.59,0.73c0.24,0.19,0.45,0.39,0.67,0.59l0.64-0.68l0.65-0.7C153.4,192.72,153.14,192.5,152.88,192.29
			z M132.34,193.71l-0.66-0.7c-0.25,0.24-0.48,0.47-0.71,0.72l0.7,0.65l0.68,0.64c0.21-0.22,0.42-0.43,0.63-0.63L132.34,193.71z
			 M154.35,193.66l-0.69,0.66l-0.68,0.64c0.21,0.21,0.4,0.43,0.59,0.66l0.72-0.59l0.73-0.61
			C154.81,194.16,154.59,193.9,154.35,193.66z M131.04,195.08l-0.74-0.6c-0.22,0.26-0.42,0.53-0.62,0.8l0.77,0.56l0.76,0.55
			c0.18-0.24,0.36-0.47,0.55-0.7L131.04,195.08z M155.64,195.21l-0.76,0.57l-0.76,0.55c0.17,0.24,0.34,0.48,0.5,0.74l0.78-0.5
			l0.8-0.52C156.03,195.75,155.84,195.48,155.64,195.21z M129.93,196.62l-0.81-0.51c-0.18,0.28-0.35,0.58-0.51,0.87l0.84,0.46
			l0.82,0.44c0.14-0.25,0.29-0.52,0.44-0.76L129.93,196.62z M156.73,196.9l-0.84,0.47l-0.81,0.45c0.14,0.25,0.28,0.52,0.41,0.78
			l0.85-0.41l0.86-0.41C157.05,197.49,156.89,197.2,156.73,196.9z M129.01,198.28l-0.86-0.41c-0.14,0.31-0.27,0.61-0.4,0.93
			l0.88,0.35l0.88,0.34c0.1-0.27,0.23-0.55,0.35-0.82L129.01,198.28z M157.6,198.72l-0.89,0.35l-0.87,0.35
			c0.11,0.27,0.21,0.56,0.3,0.84l0.89-0.29l0.91-0.3C157.83,199.34,157.72,199.03,157.6,198.72z M128.31,200.06l-0.91-0.29
			c-0.09,0.31-0.19,0.63-0.27,0.96l0.93,0.24l0.91,0.23c0.08-0.28,0.15-0.58,0.25-0.85L128.31,200.06z M158.22,200.64l-0.92,0.24
			l-0.91,0.24c0.08,0.28,0.14,0.58,0.2,0.87l0.92-0.18l0.93-0.18C158.38,201.29,158.3,200.96,158.22,200.64z M127.85,201.89
			l-0.93-0.18c-0.06,0.33-0.11,0.66-0.15,1l0.94,0.11l0.93,0.11c0.04-0.29,0.08-0.59,0.14-0.88L127.85,201.89z M158.61,202.61
			l-0.94,0.12l-0.93,0.12c0.04,0.29,0.07,0.59,0.08,0.89l0.93-0.06l0.94-0.07C158.68,203.28,158.64,202.94,158.61,202.61z
			 M126.67,203.71c-0.02,0.32-0.03,0.64-0.03,1h0.28l0.66-0.01l0.94-0.02c0-0.29,0.01-0.58,0.03-0.86L126.67,203.71z M157.79,204.66
			l-0.94,0.03c0,0.3-0.01,0.59-0.03,0.89l0.94,0.06l0.94,0.07c0.02-0.34,0.03-0.67,0.03-1.01v-0.07L157.79,204.66z M128.56,205.6
			l-0.93,0.06l-0.94,0.07c0.02,0.34,0.05,0.67,0.09,1l0.94-0.12l0.93-0.11C128.61,206.2,128.58,205.9,128.56,205.6z M157.67,206.57
			l-0.93-0.11c-0.04,0.29-0.08,0.59-0.13,0.88l0.92,0.17l0.93,0.18c0.07-0.33,0.11-0.66,0.16-0.99L157.67,206.57z M128.79,207.37
			l-0.92,0.18l-0.94,0.18c0.07,0.33,0.14,0.66,0.23,0.98l0.93-0.24l0.91-0.24C128.91,207.95,128.84,207.66,128.79,207.37z
			 M157.31,208.44l-0.91-0.24c-0.08,0.29-0.15,0.58-0.25,0.86l0.89,0.28l0.91,0.29c0.1-0.32,0.2-0.64,0.28-0.96L157.31,208.44z
			 M129.23,209.08l-0.9,0.29l-0.9,0.29c0.1,0.32,0.22,0.64,0.34,0.95l0.89-0.35l0.87-0.35
			C129.42,209.65,129.32,209.37,129.23,209.08z M156.73,210.25l-0.87-0.35c-0.1,0.27-0.23,0.55-0.35,0.82l0.84,0.4l0.87,0.41
			c0.14-0.3,0.27-0.61,0.4-0.93L156.73,210.25z M129.89,210.74l-0.85,0.4l-0.86,0.41c0.14,0.31,0.29,0.6,0.45,0.91l0.84-0.46
			l0.81-0.45C130.15,211.26,130.01,211.01,129.89,210.74z M155.92,211.95l-0.81-0.45c-0.14,0.26-0.29,0.52-0.45,0.77l0.78,0.5
			l0.81,0.51c0.18-0.28,0.35-0.58,0.51-0.87L155.92,211.95z M130.75,212.29l-0.79,0.5l-0.8,0.51c0.18,0.28,0.37,0.56,0.57,0.83
			l1.53-1.11C131.07,212.78,130.9,212.54,130.75,212.29z M154.91,213.56l-0.76-0.55c-0.18,0.24-0.36,0.47-0.55,0.7l0.72,0.59
			l0.74,0.6c0.22-0.25,0.42-0.52,0.62-0.79L154.91,213.56z M131.79,213.73l-0.72,0.59l-0.73,0.6c0.21,0.26,0.43,0.51,0.66,0.76
			l0.7-0.65l0.68-0.64C132.17,214.17,131.99,213.96,131.79,213.73z M153.69,215.02l-0.67-0.64c-0.21,0.22-0.42,0.42-0.63,0.62
			l0.56,0.59l0.08,0.08c0.02-0.01,0.03-0.02,0.05-0.04c0.33,0.1,0.67,0.23,0.99,0.35c0.11-0.09,0.22-0.21,0.32-0.32L153.69,215.02z
			 M133.01,215.02l-0.53,0.57c0.29-0.09,0.58-0.19,0.87-0.27C133.23,215.22,133.12,215.13,133.01,215.02z M147.36,219.04
			C147.37,219.04,147.37,219.05,147.36,219.04L147.36,219.04C147.37,219.04,147.37,219.04,147.36,219.04z"/>
		<path class="st2" d="M154.96,204.68c0,4.14-2.06,7.81-5.2,10.03c-2.29-0.52-4.65-0.77-7.06-0.77c-2.41,0-4.77,0.26-7.07,0.78
			c-3.15-2.22-5.21-5.88-5.21-10.03c0-6.78,5.49-12.27,12.27-12.27S154.96,197.91,154.96,204.68z"/>
	</g>
	<g>
		<path d="M141.4,212.31v-1.75c-1.23-0.06-2.43-0.39-3.13-0.79l0.55-2.16c0.77,0.42,1.86,0.81,3.06,0.81c1.05,0,1.77-0.4,1.77-1.14
			c0-0.7-0.59-1.14-1.95-1.6c-1.97-0.66-3.32-1.58-3.32-3.37c0-1.62,1.14-2.89,3.11-3.28v-1.75h1.81v1.62
			c1.23,0.05,2.06,0.31,2.67,0.61l-0.53,2.08c-0.48-0.2-1.33-0.63-2.65-0.63c-1.2,0-1.58,0.52-1.58,1.03c0,0.61,0.64,0.99,2.21,1.58
			c2.19,0.77,3.08,1.79,3.08,3.44c0,1.64-1.16,3.04-3.28,3.41v1.88H141.4z"/>
	</g>
</g>
</svg>
