<?xml version="1.0" encoding="utf-8"?>
<!-- Generator: Adobe Illustrator 24.0.1, SVG Export Plug-In . SVG Version: 6.00 Build 0)  -->
<svg version="1.1" id="Layer_1" xmlns="http://www.w3.org/2000/svg" xmlns:xlink="http://www.w3.org/1999/xlink" x="0px" y="0px"
	 viewBox="0 0 1280 769" style="enable-background:new 0 0 1280 769;" xml:space="preserve">
<style type="text/css">
	.st0{fill:#23A4CC;}
	.st1{fill:#F7B114;}
</style>
<g>
	<g>
		<path class="st0" d="M441.64,433.74h-55.12v-31.2h21.01v12.2h13.03V398.8l-33.35-25.17v-40.14h53.8v29.81h-19.07v-10.68h-13.73
			v13.1l33.42,25.1V433.74z"/>
		<path class="st0" d="M510.41,352.56h-18.93v81.18h-21.15v-81.18h-19.62v-19.07h59.69V352.56z"/>
		<path class="st0" d="M540.01,433.74h-21.08v-84.37l16.15-15.88h43.82v100.25H557.9v-32.93h-17.89V433.74z M557.9,381.74v-29.19
			h-17.89v29.19H557.9z"/>
		<path class="st0" d="M647.68,392v41.74h-47l-13.87-13.87v-86.38h42.98l14.21,13.24v27.59l-9.84,7.9L647.68,392z M623.21,373.29
			v-20.73h-15.39v20.73H623.21z M626.61,414.74V392h-18.79v22.74H626.61z"/>
		<path class="st0" d="M656.56,433.74V333.49h21.01v81.25h29.4v19H656.56z"/>
		<path class="st0" d="M715.97,333.49h48.67v19.07h-27.87v19.34h26.48v18.72h-26.21v24.13h28.29v19h-49.36V333.49z"/>
		<path class="st1" d="M832.72,352.56h-18.93v81.18h-21.15v-81.18h-19.62v-19.07h59.69V352.56z"/>
		<path class="st1" d="M862.25,374.67h18.03v-41.18h21.01v100.25h-21.01v-40.07h-18.03v40.07h-21.01V333.49h21.01V374.67z"/>
		<path class="st1" d="M949.26,433.74l-12.48-36.26h-5.55v36.26h-21.01v-86.11l15.25-14.14h42.91v63.71h-11.37l13.31,36.54H949.26z
			 M947.39,378.69v-26.14h-16.15v26.14H947.39z"/>
		<path class="st1" d="M978.1,333.49h48.67v19.07H998.9v19.34h26.48v18.72h-26.21v24.13h28.29v19H978.1V333.49z"/>
		<path class="st1" d="M1056.23,433.74h-21.08v-84.37l16.15-15.88h43.82v100.25h-21.01v-32.93h-17.89V433.74z M1074.12,381.74
			v-29.19h-17.89v29.19H1074.12z"/>
		<path class="st1" d="M1103.03,333.49h43.12l16.15,15.88v70.51l-14.07,13.87h-45.2V333.49z M1141.23,414.74v-62.19h-17.19v62.19
			H1141.23z"/>
	</g>
	<g>
		<path class="st0" d="M343.79,363.73l-38.64-66.93c-7.4-12.82-21.19-20.77-35.98-20.77h-77.29c-14.79,0-28.57,7.96-35.97,20.77
			l-38.65,66.93c-7.4,12.82-7.4,28.74,0,41.55l38.64,66.93c7.4,12.82,21.19,20.77,35.98,20.77h77.29c14.79,0,28.58-7.96,35.98-20.77
			l38.64-66.93C351.19,392.47,351.19,376.54,343.79,363.73z M334.11,399.69l-38.64,66.93c-5.41,9.38-15.49,15.19-26.3,15.19h-77.29
			c-10.82,0-20.9-5.81-26.29-15.19l-38.65-66.93c-5.41-9.36-5.41-21.01,0-30.37l38.65-66.93c5.41-9.36,15.48-15.19,26.29-15.19
			h77.29c10.82,0,20.9,5.82,26.3,15.19l38.64,66.93C339.52,378.68,339.52,390.32,334.11,399.69z"/>
		<g>
			<path class="st0" d="M174.54,464.02l60.72-60.72l-18.78-28.27l-7.15,7.15c-10.78,10.78-28.06,11.19-39.34,0.92l-0.13-0.12
				c-6.37-5.79-9.75-14.06-9.26-22.66c0.48-8.61,4.76-16.45,11.74-21.49c6.34-4.6,14.08-6.36,21.78-4.97
				c7.71,1.39,14.34,5.75,18.67,12.27l2.1,3.16l-9.32,9.3l-3.53-5.31c-2.37-3.57-6-5.95-10.22-6.72c-0.93-0.17-1.88-0.25-2.81-0.25
				c-3.25,0-6.4,1.01-9.09,2.96c-3.82,2.77-6.16,7.06-6.42,11.76c-0.27,4.7,1.58,9.22,5.07,12.39l0.13,0.12
				c6.16,5.6,15.61,5.39,21.5-0.51l8.99-8.99l9.31-9.32l57.49-57.49c-2.17-0.73-4.46-1.11-6.81-1.11h-77.29
				c-7.66,0-14.73,4.09-18.56,10.72l-38.64,66.93c-3.83,6.63-3.83,14.8,0,21.43l38.64,66.93
				C173.69,462.8,174.11,463.42,174.54,464.02z"/>
			<path class="st1" d="M326.37,373.79l-38.64-66.93c-0.37-0.65-0.79-1.26-1.22-1.86l-60.72,60.71l14.36,21.6l4.43,6.67l7.29,10.97
				l3.39,5.11l3.77,5.66c2.36,3.57,5.99,5.95,10.21,6.71c4.21,0.77,8.45-0.2,11.91-2.71c3.82-2.76,6.15-7.05,6.42-11.76
				c0.26-4.7-1.59-9.22-5.08-12.39l-0.11-0.1c-6.18-5.62-15.62-5.41-21.52,0.5l-4.37,4.37l-7.3-10.97l2.54-2.54
				c10.78-10.78,28.06-11.18,39.34-0.91l0.11,0.1c6.39,5.81,9.77,14.07,9.28,22.68c-0.48,8.61-4.75,16.44-11.74,21.49
				c-6.34,4.59-14.07,6.35-21.78,4.96c-7.71-1.39-14.34-5.74-18.67-12.27l-5.71-8.6l-57.49,57.49c2.17,0.73,4.46,1.11,6.81,1.11
				h77.29c7.66,0,14.73-4.09,18.56-10.72l38.64-66.93C330.2,388.59,330.2,380.42,326.37,373.79z"/>
		</g>
	</g>
</g>
</svg>
